<?xml version="1.0" encoding="iso-8859-1"?>
<!-- Uploaded to: SVG Repo, www.svgrepo.com, Generator: SVG Repo Mixer Tools -->
<svg fill="#000000" height="800px" width="800px" version="1.1" id="Layer_1" xmlns="http://www.w3.org/2000/svg" xmlns:xlink="http://www.w3.org/1999/xlink" 
	 viewBox="0 0 512 512" xml:space="preserve">
<g>
	<g>
		<path d="M497.327,226.151L285.854,14.678C276.398,5.212,263.818,0,250.435,0H50.087C22.469,0,0,22.469,0,50.087v200.348
			c0,13.383,5.214,25.963,14.673,35.414l211.473,211.474c9.458,9.465,22.036,14.678,35.419,14.678
			c13.383,0,25.962-5.212,35.414-14.673l200.346-200.344c9.463-9.46,14.675-22.037,14.675-35.417
			C512,248.185,506.788,235.608,497.327,226.151z M473.716,273.368L273.363,473.721c-3.149,3.151-7.339,4.887-11.798,4.887
			c-4.459,0-8.649-1.736-11.803-4.893L38.279,262.233c-3.151-3.149-4.887-7.339-4.887-11.798V50.087
			c0-9.206,7.49-16.696,16.696-16.696h200.348c4.459,0,8.649,1.736,11.803,4.893l211.481,211.48
			c3.153,3.152,4.891,7.343,4.891,11.801C478.609,266.023,476.871,270.214,473.716,273.368z"/>
	</g>
</g>
<g>
	<g>
		<path d="M339.913,168.141c-13.709-13.709-31.348-21.792-49.667-22.76c-19.427-1.031-37.783,6.077-51.705,19.999
			c-14.825,14.825-21.197,34.287-18.536,56.465c-22.176-2.66-41.641,3.712-56.465,18.536c-13.923,13.922-21.025,32.285-20,51.705
			c0.967,18.32,9.051,35.959,22.76,49.668c18.322,18.322,40.94,23.651,68.922,23.651c17.163,0,36.344-2.006,57.787-4.247
			c13.894-1.453,29.644-3.099,46.543-4.399c8.211-0.632,14.734-7.156,15.367-15.367c1.3-16.898,2.946-32.647,4.399-46.54
			C365.214,238.452,369.475,197.701,339.913,168.141z M326.106,291.381c-1.064,10.175-2.231,21.33-3.299,33.269
			c-11.942,1.069-23.096,2.234-33.272,3.298c-54.92,5.742-82.097,7.724-99.626-9.805c-7.867-7.868-12.494-17.747-13.026-27.818
			c-0.367-6.962,1.115-17.182,10.267-26.332c7.109-7.109,15.661-9.364,23.658-9.364c13.385,0,25.21,6.324,26.065,6.792
			c6.513,3.624,14.668,2.53,19.943-2.746c5.295-5.294,6.438-13.427,2.767-19.952c-0.681-1.244-16.481-30.681,2.568-49.73
			c16.688-16.691,40.357-11.035,54.151,2.759C333.831,209.28,331.849,236.458,326.106,291.381z"/>
	</g>
</g>
<g>
	<g>
		<path d="M122.435,66.783c-30.687,0-55.652,24.966-55.652,55.652c0,30.687,24.966,55.652,55.652,55.652
			c30.687,0,55.652-24.966,55.652-55.652C178.087,91.748,153.121,66.783,122.435,66.783z M122.435,144.696
			c-12.275,0-22.261-9.986-22.261-22.261c0-12.275,9.986-22.261,22.261-22.261c12.275,0,22.261,9.986,22.261,22.261
			C144.696,134.709,134.709,144.696,122.435,144.696z"/>
	</g>
</g>
</svg>