<?xml version="1.0" standalone="no"?><!DOCTYPE svg PUBLIC "-//W3C//DTD SVG 1.1//EN" "http://www.w3.org/Graphics/SVG/1.1/DTD/svg11.dtd"><svg class="icon" height="512" viewBox="0 0 1024 1024" version="1.1" xmlns="http://www.w3.org/2000/svg"><path d="M304.39936 643.072L233.03936 569.344l45.952-44.544 149.568 154.496-149.568 154.432-45.952-44.48 79.552-82.176H0.01536v-64h304.384z m278.08 196.8a2315.968 2315.968 0 0 0 155.328-131.328c67.712-62.912 123.008-123.584 161.536-179.456a636.096 636.096 0 0 0 27.008-43.2c2.048-4.096 2.048-4.096 2.752-5.248 1.408-2.816 2.048-4.096 3.392-6.08a257.28 257.28 0 0 0 13.056-29.248c9.152-23.36 14.464-52.672 14.464-80.512C960.01536 234.24 854.60736 128 725.64736 128c-62.912 0-123.328 26.24-167.36 72.32l-46.208 48.448-46.336-48.384A232.256 232.256 0 0 0 298.44736 128C168.84736 128 62.67136 234.56 64.01536 364.16c0.384 37.632 5.248 60.992 18.624 93.056 13.568 31.488 34.688 65.792 62.912 102.528l-50.752 39.04C65.16736 560.064 40.33536 520.96 24.07936 482.88a43.52 43.52 0 0 1-1.472-3.584C8.20736 445.12 0.52736 413.696 0.01536 364.8-1.64864 198.912 133.96736 64 298.44736 64 379.47136 64 456.46336 98.048 512.01536 156.16A295.808 295.808 0 0 1 725.64736 64C889.99936 64 1024.01536 199.04 1024.01536 364.8c0 35.392-6.656 72.64-18.944 103.936a319.04 319.04 0 0 1-18.88 40.896c-1.024 1.664-1.92 3.456-2.816 5.248-2.944 5.568-6.336 12.032-10.88 18.688-118.4 197.44-416.96 406.208-429.696 415.872a52.224 52.224 0 0 1-62.912 0.256c-4.352-3.2-37.184-26.304-83.84-62.592l39.296-50.56a2500.48 2500.48 0 0 0 75.904 56.832c16.512-12.16 50.432-37.376 71.232-53.504z" /></svg>