<svg xmlns="http://www.w3.org/2000/svg" viewBox="0 0 32 40" x="0px" y="0px"><title>Romance, Heart, Love, bag, shop, shopping, valentine</title><g data-name="Shop Love"><path d="M13,7H11A5,5,0,0,1,21,7H19a3,3,0,0,0-6,0Zm5.11,9.68a.94.94,0,0,0-.89.1l-.67.44a1,1,0,0,1-1.1,0l-.67-.44a1,1,0,0,0-.54-.17.84.84,0,0,0-.35.07,1,1,0,0,0-.24,1.7L16,20.14l2.35-1.76a1,1,0,0,0-.24-1.7ZM27,29a3,3,0,0,1-2.27,1H7.31A3,3,0,0,1,5,29a3,3,0,0,1-.7-2.39l2.43-17A3,3,0,0,1,9.73,7H11v4a1,1,0,0,0,2,0V7h6v4a1,1,0,0,0,2,0V7h1.27a3,3,0,0,1,3,2.58l2.43,17A3,3,0,0,1,27,29Zm-6.31-12.1a3,3,0,0,0-4.54-1.76l-.11.08-.11-.08A3,3,0,0,0,12.45,20l3,2.21a1,1,0,0,0,1.2,0L19.55,20A3,3,0,0,0,20.65,16.87Z"/></g><text x="0" y="47" fill="#000000" font-size="5px" font-weight="bold" font-family="'Helvetica Neue', Helvetica, Arial-Unicode, Arial, Sans-serif">Created by Kmg Design</text><text x="0" y="52" fill="#000000" font-size="5px" font-weight="bold" font-family="'Helvetica Neue', Helvetica, Arial-Unicode, Arial, Sans-serif">from the Noun Project</text></svg>