<svg xmlns="http://www.w3.org/2000/svg" viewBox="0 0 32 40" x="0px" y="0px"><title>Romance, Heart, Love, bag, shop, shopping, valentine</title><g data-name="Shop Love"><path d="M27.66,26.58l-2.43-17a3,3,0,0,0-3-2.58H21A5,5,0,0,0,11,7H9.73a3,3,0,0,0-3,2.58l-2.43,17A3,3,0,0,0,5,29a3,3,0,0,0,2.27,1H24.69A3,3,0,0,0,27,29,3,3,0,0,0,27.66,26.58ZM16,4a3,3,0,0,1,3,3H13A3,3,0,0,1,16,4Zm9.45,23.65a1,1,0,0,1-.76.35H7.31a1,1,0,0,1-.76-.35,1,1,0,0,1-.23-.79l2.42-17a1,1,0,0,1,1-.86H11v2a1,1,0,0,0,2,0V9h6v2a1,1,0,0,0,2,0V9h1.27a1,1,0,0,1,1,.86l2.42,17A1,1,0,0,1,25.45,27.65ZM18.83,14.81a3,3,0,0,0-2.72.3l-.11.08-.11-.08A3,3,0,0,0,12.45,20l3,2.21a1,1,0,0,0,1.2,0L19.55,20a3,3,0,0,0-.72-5.17Zm-.48,3.57L16,20.14l-2.35-1.76a1,1,0,0,1,.24-1.7.84.84,0,0,1,.35-.07,1,1,0,0,1,.54.17l.67.44a1,1,0,0,0,1.1,0l.67-.44a.94.94,0,0,1,.89-.1,1,1,0,0,1,.24,1.7Z"/></g><text x="0" y="47" fill="#000000" font-size="5px" font-weight="bold" font-family="'Helvetica Neue', Helvetica, Arial-Unicode, Arial, Sans-serif">Created by Kmg Design</text><text x="0" y="52" fill="#000000" font-size="5px" font-weight="bold" font-family="'Helvetica Neue', Helvetica, Arial-Unicode, Arial, Sans-serif">from the Noun Project</text></svg>