<svg xmlns="http://www.w3.org/2000/svg" xmlns:xlink="http://www.w3.org/1999/xlink" version="1.1" x="0px" y="0px" viewBox="0 0 32 40" style="enable-background:new 0 0 32 32;" xml:space="preserve"><g><path d="M10.11,17.17c1.09-0.97,2.71-1.02,3.86-0.12l1.36,1.07l6.48-6.45c-0.5-0.64-1.04-1.28-1.57-1.91l-0.42-0.5   c-2.02-2.39-3.22-4.53-3.57-6.35C16.13,2.34,15.62,1.97,15.04,2h-0.01c-0.5,0.05-0.9,0.41-1.01,0.9c-0.14,0.7-0.93,1.52-1.7,2.31   c-1.31,1.36-2.94,3.05-2.36,5.29c0.52,1.98,0.49,2.8,0.43,3.11c-0.21-0.07-0.65-0.27-1.42-0.86c-0.91-0.7-1.7-0.49-2.08-0.3   c-2.23,1.09-2.29,7-2.29,7.06c0,0.81,0.09,1.59,0.27,2.35L10.11,17.17z"/><path d="M17.67,24.25c-1.07,1.07-2.78,1.17-3.97,0.23l-1.47-1.15l-4.29,3.83C9.82,28.92,12.36,30,15.15,30   c5.81,0,10.54-4.71,10.54-10.49c0-0.88-0.25-1.74-0.64-2.6L17.67,24.25z"/><path d="M27.978,8.745h-3.372c-0.271,0-0.531,0.107-0.723,0.298c-0.644,0.641-0.188,1.737,0.723,1.737l0.933,0L15.481,20.791   l-2.749-2.165c-0.38-0.301-0.923-0.284-1.285,0.039l-9.113,8.143c-0.412,0.368-0.447,1.001-0.079,1.412   c0.344,0.384,0.987,0.459,1.412,0.08l8.487-7.584l2.786,2.194c0.398,0.315,0.966,0.279,1.324-0.076l10.692-10.643l0,0.927   c0,0.907,1.101,1.361,1.745,0.72h0c0.192-0.191,0.299-0.45,0.299-0.72V9.763C29,9.201,28.542,8.745,27.978,8.745z"/></g><text x="0" y="47" fill="#000000" font-size="5px" font-weight="bold" font-family="'Helvetica Neue', Helvetica, Arial-Unicode, Arial, Sans-serif">Created by Riyan Resdian</text><text x="0" y="52" fill="#000000" font-size="5px" font-weight="bold" font-family="'Helvetica Neue', Helvetica, Arial-Unicode, Arial, Sans-serif">from the Noun Project</text></svg>