<svg xmlns="http://www.w3.org/2000/svg" xmlns:xlink="http://www.w3.org/1999/xlink" version="1.1" x="0px" y="0px" viewBox="0 0 32 40" style="enable-background:new 0 0 32 32;" xml:space="preserve"><g><path d="M6.229,22.09c0.052,0,0.104-0.004,0.157-0.012c0.545-0.086,0.918-0.598,0.833-1.144C7.14,20.437,7.1,19.958,7.1,19.51   c0-2.026,0.573-4.684,1.103-5.211c0.013,0.009,0.028,0.02,0.045,0.032c1.054,0.815,2.591,1.811,3.776,1.029   c1.059-0.698,1.171-2.305,0.374-5.374c-0.281-1.066,0.555-2.031,1.861-3.383c0.4-0.414,0.806-0.834,1.163-1.274   c0.682,1.624,1.811,3.377,3.381,5.246c0.686,0.801,1.394,1.629,1.994,2.414c0.335,0.439,0.965,0.523,1.401,0.186   c0.439-0.335,0.522-0.963,0.187-1.402c-0.633-0.827-1.359-1.676-2.068-2.505c-2.009-2.391-3.208-4.527-3.584-6.433   c-0.16-0.557-0.685-0.906-1.272-0.821C15,2.085,14.62,2.445,14.521,2.906c-0.145,0.696-0.936,1.515-1.701,2.306   c-1.312,1.357-2.945,3.047-2.358,5.279c0.516,1.986,0.484,2.814,0.428,3.119c-0.209-0.065-0.646-0.264-1.421-0.863   c-0.914-0.702-1.698-0.489-2.084-0.298C5.162,13.544,5.1,19.45,5.1,19.51c0,0.552,0.048,1.136,0.142,1.735   C5.319,21.738,5.745,22.09,6.229,22.09z"/><path d="M24.416,16.742c-0.512,0.206-0.76,0.789-0.554,1.301c0.221,0.547,0.328,1.026,0.328,1.466c0,4.682-3.831,8.49-8.541,8.49   c-2.16,0-4.213-0.797-5.782-2.245c-0.406-0.373-1.038-0.349-1.413,0.058c-0.375,0.405-0.349,1.038,0.057,1.413   C10.451,29.014,12.986,30,15.65,30c5.812,0,10.541-4.706,10.541-10.49c0-0.7-0.154-1.425-0.473-2.214   C25.511,16.782,24.928,16.534,24.416,16.742z"/><path d="M28.478,8.745h-3.372c-0.271,0-0.531,0.107-0.723,0.298c-0.644,0.641-0.188,1.737,0.723,1.737l0.933,0L15.981,20.791   l-2.749-2.165c-0.38-0.301-0.923-0.284-1.285,0.039l-9.113,8.143c-0.412,0.368-0.447,1.001-0.079,1.412   c0.344,0.384,0.987,0.459,1.412,0.08l8.487-7.584l2.786,2.194c0.398,0.315,0.966,0.279,1.324-0.076l10.692-10.643l0,0.927   c0,0.907,1.101,1.361,1.745,0.72h0c0.192-0.191,0.299-0.45,0.299-0.72V9.762C29.5,9.2,29.042,8.745,28.478,8.745z"/></g><text x="0" y="47" fill="#000000" font-size="5px" font-weight="bold" font-family="'Helvetica Neue', Helvetica, Arial-Unicode, Arial, Sans-serif">Created by Riyan Resdian</text><text x="0" y="52" fill="#000000" font-size="5px" font-weight="bold" font-family="'Helvetica Neue', Helvetica, Arial-Unicode, Arial, Sans-serif">from the Noun Project</text></svg>